<mxfile host="app.diagrams.net" modified="2023-11-02T08:40:47.173Z" agent="Mozilla/5.0 (Macintosh; Intel Mac OS X 10_15_7) AppleWebKit/537.36 (KHTML, like Gecko) Chrome/105.0.0.0 Safari/537.36" etag="BJCmu9w5keAddg0Hedpk" version="22.0.8" type="github">
  <diagram id="C5RBs43oDa-KdzZeNtuy" name="Page-1">
    <mxGraphModel dx="1434" dy="796" grid="1" gridSize="10" guides="1" tooltips="1" connect="1" arrows="1" fold="1" page="1" pageScale="1" pageWidth="827" pageHeight="1169" math="0" shadow="0">
      <root>
        <mxCell id="WIyWlLk6GJQsqaUBKTNV-0" />
        <mxCell id="WIyWlLk6GJQsqaUBKTNV-1" parent="WIyWlLk6GJQsqaUBKTNV-0" />
        <mxCell id="J7u77pziyDC-r-UCUrzR-160" value="" style="rounded=1;whiteSpace=wrap;html=1;" parent="WIyWlLk6GJQsqaUBKTNV-1" vertex="1">
          <mxGeometry x="30" y="320" width="750" height="290" as="geometry" />
        </mxCell>
        <mxCell id="J7u77pziyDC-r-UCUrzR-161" value="" style="rounded=0;whiteSpace=wrap;html=1;" parent="WIyWlLk6GJQsqaUBKTNV-1" vertex="1">
          <mxGeometry x="640" y="424" width="120" height="60" as="geometry" />
        </mxCell>
        <mxCell id="J7u77pziyDC-r-UCUrzR-159" value="" style="rounded=1;whiteSpace=wrap;html=1;" parent="WIyWlLk6GJQsqaUBKTNV-1" vertex="1">
          <mxGeometry x="35" y="693" width="750" height="585" as="geometry" />
        </mxCell>
        <mxCell id="J7u77pziyDC-r-UCUrzR-156" value="" style="rounded=0;whiteSpace=wrap;html=1;fillColor=#f8cecc;strokeColor=#b85450;" parent="WIyWlLk6GJQsqaUBKTNV-1" vertex="1">
          <mxGeometry x="310" y="930" width="200" height="28" as="geometry" />
        </mxCell>
        <mxCell id="J7u77pziyDC-r-UCUrzR-155" value="" style="rounded=0;whiteSpace=wrap;html=1;fillColor=#f8cecc;strokeColor=#b85450;" parent="WIyWlLk6GJQsqaUBKTNV-1" vertex="1">
          <mxGeometry x="310" y="850" width="200" height="28" as="geometry" />
        </mxCell>
        <mxCell id="J7u77pziyDC-r-UCUrzR-154" value="" style="rounded=0;whiteSpace=wrap;html=1;fillColor=#f8cecc;strokeColor=#b85450;" parent="WIyWlLk6GJQsqaUBKTNV-1" vertex="1">
          <mxGeometry x="310" y="978" width="200" height="70" as="geometry" />
        </mxCell>
        <mxCell id="J7u77pziyDC-r-UCUrzR-153" value="" style="rounded=0;whiteSpace=wrap;html=1;fillColor=#f8cecc;strokeColor=#b85450;" parent="WIyWlLk6GJQsqaUBKTNV-1" vertex="1">
          <mxGeometry x="310" y="768" width="200" height="60" as="geometry" />
        </mxCell>
        <mxCell id="J7u77pziyDC-r-UCUrzR-152" value="筛选" style="rounded=0;whiteSpace=wrap;html=1;strokeColor=#7EA6E0;strokeWidth=2;fontColor=#7EA6E0;" parent="WIyWlLk6GJQsqaUBKTNV-1" vertex="1">
          <mxGeometry x="420" y="708" width="50" height="516" as="geometry" />
        </mxCell>
        <mxCell id="J7u77pziyDC-r-UCUrzR-151" value="&lt;font color=&quot;#7ea6e0&quot;&gt;过滤&lt;/font&gt;" style="rounded=0;whiteSpace=wrap;html=1;strokeColor=#7EA6E0;strokeWidth=2;" parent="WIyWlLk6GJQsqaUBKTNV-1" vertex="1">
          <mxGeometry x="86" y="753" width="104" height="465" as="geometry" />
        </mxCell>
        <object label="情报类型" id="J7u77pziyDC-r-UCUrzR-0">
          <mxCell style="swimlane;fontStyle=0;childLayout=stackLayout;horizontal=1;startSize=30;horizontalStack=0;resizeParent=1;resizeParentMax=0;resizeLast=0;collapsible=1;marginBottom=0;whiteSpace=wrap;html=1;" parent="WIyWlLk6GJQsqaUBKTNV-1" vertex="1">
            <mxGeometry x="160" y="100" width="140" height="120" as="geometry">
              <mxRectangle x="260" y="50" width="90" height="30" as="alternateBounds" />
            </mxGeometry>
          </mxCell>
        </object>
        <mxCell id="J7u77pziyDC-r-UCUrzR-1" value="空间类型" style="text;strokeColor=none;fillColor=none;align=left;verticalAlign=middle;spacingLeft=4;spacingRight=4;overflow=hidden;points=[[0,0.5],[1,0.5]];portConstraint=eastwest;rotatable=0;whiteSpace=wrap;html=1;" parent="J7u77pziyDC-r-UCUrzR-0" vertex="1">
          <mxGeometry y="30" width="140" height="30" as="geometry" />
        </mxCell>
        <mxCell id="J7u77pziyDC-r-UCUrzR-2" value="关系类型" style="text;strokeColor=none;fillColor=none;align=left;verticalAlign=middle;spacingLeft=4;spacingRight=4;overflow=hidden;points=[[0,0.5],[1,0.5]];portConstraint=eastwest;rotatable=0;whiteSpace=wrap;html=1;" parent="J7u77pziyDC-r-UCUrzR-0" vertex="1">
          <mxGeometry y="60" width="140" height="30" as="geometry" />
        </mxCell>
        <mxCell id="J7u77pziyDC-r-UCUrzR-3" value="..." style="text;strokeColor=none;fillColor=none;align=left;verticalAlign=middle;spacingLeft=4;spacingRight=4;overflow=hidden;points=[[0,0.5],[1,0.5]];portConstraint=eastwest;rotatable=0;whiteSpace=wrap;html=1;" parent="J7u77pziyDC-r-UCUrzR-0" vertex="1">
          <mxGeometry y="90" width="140" height="30" as="geometry" />
        </mxCell>
        <mxCell id="J7u77pziyDC-r-UCUrzR-4" value="被动维护" style="swimlane;fontStyle=0;childLayout=stackLayout;horizontal=1;startSize=30;horizontalStack=0;resizeParent=1;resizeParentMax=0;resizeLast=0;collapsible=1;marginBottom=0;whiteSpace=wrap;html=1;" parent="WIyWlLk6GJQsqaUBKTNV-1" vertex="1">
          <mxGeometry x="344" y="40" width="140" height="180" as="geometry" />
        </mxCell>
        <mxCell id="J7u77pziyDC-r-UCUrzR-5" value="隔离带维护" style="text;strokeColor=none;fillColor=none;align=left;verticalAlign=middle;spacingLeft=4;spacingRight=4;overflow=hidden;points=[[0,0.5],[1,0.5]];portConstraint=eastwest;rotatable=0;whiteSpace=wrap;html=1;" parent="J7u77pziyDC-r-UCUrzR-4" vertex="1">
          <mxGeometry y="30" width="140" height="30" as="geometry" />
        </mxCell>
        <mxCell id="J7u77pziyDC-r-UCUrzR-6" value="车道线维护" style="text;strokeColor=none;fillColor=none;align=left;verticalAlign=middle;spacingLeft=4;spacingRight=4;overflow=hidden;points=[[0,0.5],[1,0.5]];portConstraint=eastwest;rotatable=0;whiteSpace=wrap;html=1;" parent="J7u77pziyDC-r-UCUrzR-4" vertex="1">
          <mxGeometry y="60" width="140" height="30" as="geometry" />
        </mxCell>
        <mxCell id="J7u77pziyDC-r-UCUrzR-7" value="mark样式维护" style="text;strokeColor=none;fillColor=none;align=left;verticalAlign=middle;spacingLeft=4;spacingRight=4;overflow=hidden;points=[[0,0.5],[1,0.5]];portConstraint=eastwest;rotatable=0;whiteSpace=wrap;html=1;" parent="J7u77pziyDC-r-UCUrzR-4" vertex="1">
          <mxGeometry y="90" width="140" height="30" as="geometry" />
        </mxCell>
        <mxCell id="J7u77pziyDC-r-UCUrzR-12" value="车道组维护" style="text;strokeColor=none;fillColor=none;align=left;verticalAlign=middle;spacingLeft=4;spacingRight=4;overflow=hidden;points=[[0,0.5],[1,0.5]];portConstraint=eastwest;rotatable=0;whiteSpace=wrap;html=1;" parent="J7u77pziyDC-r-UCUrzR-4" vertex="1">
          <mxGeometry y="120" width="140" height="30" as="geometry" />
        </mxCell>
        <mxCell id="J7u77pziyDC-r-UCUrzR-11" value="..." style="text;strokeColor=none;fillColor=none;align=left;verticalAlign=middle;spacingLeft=4;spacingRight=4;overflow=hidden;points=[[0,0.5],[1,0.5]];portConstraint=eastwest;rotatable=0;whiteSpace=wrap;html=1;" parent="J7u77pziyDC-r-UCUrzR-4" vertex="1">
          <mxGeometry y="150" width="140" height="30" as="geometry" />
        </mxCell>
        <mxCell id="J7u77pziyDC-r-UCUrzR-13" value="数据变更" style="swimlane;fontStyle=0;childLayout=stackLayout;horizontal=1;startSize=30;horizontalStack=0;resizeParent=1;resizeParentMax=0;resizeLast=0;collapsible=1;marginBottom=0;whiteSpace=wrap;html=1;" parent="WIyWlLk6GJQsqaUBKTNV-1" vertex="1">
          <mxGeometry x="520" y="130" width="140" height="60" as="geometry" />
        </mxCell>
        <mxCell id="J7u77pziyDC-r-UCUrzR-14" value="车道线变更" style="text;strokeColor=none;fillColor=none;align=left;verticalAlign=middle;spacingLeft=4;spacingRight=4;overflow=hidden;points=[[0,0.5],[1,0.5]];portConstraint=eastwest;rotatable=0;whiteSpace=wrap;html=1;" parent="J7u77pziyDC-r-UCUrzR-13" vertex="1">
          <mxGeometry y="30" width="140" height="30" as="geometry" />
        </mxCell>
        <mxCell id="J7u77pziyDC-r-UCUrzR-38" style="edgeStyle=orthogonalEdgeStyle;rounded=0;orthogonalLoop=1;jettySize=auto;html=1;exitX=1;exitY=0.5;exitDx=0;exitDy=0;entryX=0;entryY=0.5;entryDx=0;entryDy=0;" parent="WIyWlLk6GJQsqaUBKTNV-1" source="J7u77pziyDC-r-UCUrzR-18" target="J7u77pziyDC-r-UCUrzR-21" edge="1">
          <mxGeometry relative="1" as="geometry" />
        </mxCell>
        <mxCell id="J7u77pziyDC-r-UCUrzR-18" value="空间类型" style="text;html=1;strokeColor=none;fillColor=none;align=center;verticalAlign=middle;whiteSpace=wrap;rounded=0;" parent="WIyWlLk6GJQsqaUBKTNV-1" vertex="1">
          <mxGeometry x="206" y="369" width="60" height="30" as="geometry" />
        </mxCell>
        <mxCell id="J7u77pziyDC-r-UCUrzR-36" style="edgeStyle=orthogonalEdgeStyle;rounded=0;orthogonalLoop=1;jettySize=auto;html=1;exitX=1;exitY=0.5;exitDx=0;exitDy=0;entryX=0;entryY=0.5;entryDx=0;entryDy=0;" parent="WIyWlLk6GJQsqaUBKTNV-1" source="J7u77pziyDC-r-UCUrzR-19" target="J7u77pziyDC-r-UCUrzR-24" edge="1">
          <mxGeometry relative="1" as="geometry" />
        </mxCell>
        <mxCell id="J7u77pziyDC-r-UCUrzR-19" value="关系类型" style="text;html=1;strokeColor=none;fillColor=none;align=center;verticalAlign=middle;whiteSpace=wrap;rounded=0;" parent="WIyWlLk6GJQsqaUBKTNV-1" vertex="1">
          <mxGeometry x="206" y="489" width="60" height="30" as="geometry" />
        </mxCell>
        <mxCell id="J7u77pziyDC-r-UCUrzR-37" style="edgeStyle=orthogonalEdgeStyle;rounded=0;orthogonalLoop=1;jettySize=auto;html=1;exitX=1;exitY=0.5;exitDx=0;exitDy=0;entryX=0;entryY=0.5;entryDx=0;entryDy=0;" parent="WIyWlLk6GJQsqaUBKTNV-1" source="J7u77pziyDC-r-UCUrzR-20" target="J7u77pziyDC-r-UCUrzR-25" edge="1">
          <mxGeometry relative="1" as="geometry" />
        </mxCell>
        <mxCell id="J7u77pziyDC-r-UCUrzR-20" value="..." style="text;html=1;strokeColor=none;fillColor=none;align=center;verticalAlign=middle;whiteSpace=wrap;rounded=0;" parent="WIyWlLk6GJQsqaUBKTNV-1" vertex="1">
          <mxGeometry x="206" y="559" width="60" height="30" as="geometry" />
        </mxCell>
        <mxCell id="J7u77pziyDC-r-UCUrzR-41" style="edgeStyle=orthogonalEdgeStyle;rounded=0;orthogonalLoop=1;jettySize=auto;html=1;exitX=1;exitY=0.5;exitDx=0;exitDy=0;entryX=0;entryY=0.5;entryDx=0;entryDy=0;" parent="WIyWlLk6GJQsqaUBKTNV-1" source="J7u77pziyDC-r-UCUrzR-21" target="J7u77pziyDC-r-UCUrzR-29" edge="1">
          <mxGeometry relative="1" as="geometry" />
        </mxCell>
        <mxCell id="SqXRmf9C6FIYz_qsP1Pk-2" value="情报" style="edgeLabel;html=1;align=center;verticalAlign=middle;resizable=0;points=[];" vertex="1" connectable="0" parent="J7u77pziyDC-r-UCUrzR-41">
          <mxGeometry x="-0.0575" y="-2" relative="1" as="geometry">
            <mxPoint as="offset" />
          </mxGeometry>
        </mxCell>
        <mxCell id="J7u77pziyDC-r-UCUrzR-21" value="隔离带维护" style="text;html=1;strokeColor=none;fillColor=none;align=center;verticalAlign=middle;whiteSpace=wrap;rounded=0;" parent="WIyWlLk6GJQsqaUBKTNV-1" vertex="1">
          <mxGeometry x="325" y="329" width="85" height="30" as="geometry" />
        </mxCell>
        <mxCell id="J7u77pziyDC-r-UCUrzR-42" style="edgeStyle=orthogonalEdgeStyle;rounded=0;orthogonalLoop=1;jettySize=auto;html=1;exitX=1;exitY=0.5;exitDx=0;exitDy=0;entryX=0;entryY=0.5;entryDx=0;entryDy=0;" parent="WIyWlLk6GJQsqaUBKTNV-1" source="J7u77pziyDC-r-UCUrzR-22" target="J7u77pziyDC-r-UCUrzR-30" edge="1">
          <mxGeometry relative="1" as="geometry" />
        </mxCell>
        <mxCell id="SqXRmf9C6FIYz_qsP1Pk-3" value="情报" style="edgeLabel;html=1;align=center;verticalAlign=middle;resizable=0;points=[];" vertex="1" connectable="0" parent="J7u77pziyDC-r-UCUrzR-42">
          <mxGeometry x="-0.1739" y="-3" relative="1" as="geometry">
            <mxPoint as="offset" />
          </mxGeometry>
        </mxCell>
        <mxCell id="J7u77pziyDC-r-UCUrzR-22" value="车道线维护" style="text;html=1;strokeColor=none;fillColor=none;align=center;verticalAlign=middle;whiteSpace=wrap;rounded=0;" parent="WIyWlLk6GJQsqaUBKTNV-1" vertex="1">
          <mxGeometry x="325" y="369" width="85" height="30" as="geometry" />
        </mxCell>
        <mxCell id="J7u77pziyDC-r-UCUrzR-43" style="edgeStyle=orthogonalEdgeStyle;rounded=0;orthogonalLoop=1;jettySize=auto;html=1;exitX=1;exitY=0.5;exitDx=0;exitDy=0;entryX=0;entryY=0.5;entryDx=0;entryDy=0;" parent="WIyWlLk6GJQsqaUBKTNV-1" source="J7u77pziyDC-r-UCUrzR-23" target="J7u77pziyDC-r-UCUrzR-31" edge="1">
          <mxGeometry relative="1" as="geometry" />
        </mxCell>
        <mxCell id="SqXRmf9C6FIYz_qsP1Pk-4" value="情报" style="edgeLabel;html=1;align=center;verticalAlign=middle;resizable=0;points=[];" vertex="1" connectable="0" parent="J7u77pziyDC-r-UCUrzR-43">
          <mxGeometry x="-0.1264" y="1" relative="1" as="geometry">
            <mxPoint as="offset" />
          </mxGeometry>
        </mxCell>
        <mxCell id="J7u77pziyDC-r-UCUrzR-23" value="mark样式" style="text;html=1;strokeColor=none;fillColor=none;align=center;verticalAlign=middle;whiteSpace=wrap;rounded=0;" parent="WIyWlLk6GJQsqaUBKTNV-1" vertex="1">
          <mxGeometry x="325" y="409" width="85" height="30" as="geometry" />
        </mxCell>
        <mxCell id="J7u77pziyDC-r-UCUrzR-49" style="edgeStyle=orthogonalEdgeStyle;rounded=0;orthogonalLoop=1;jettySize=auto;html=1;exitX=1;exitY=0.5;exitDx=0;exitDy=0;entryX=0;entryY=0.5;entryDx=0;entryDy=0;" parent="WIyWlLk6GJQsqaUBKTNV-1" source="J7u77pziyDC-r-UCUrzR-24" target="J7u77pziyDC-r-UCUrzR-47" edge="1">
          <mxGeometry relative="1" as="geometry" />
        </mxCell>
        <mxCell id="SqXRmf9C6FIYz_qsP1Pk-5" value="情报" style="edgeLabel;html=1;align=center;verticalAlign=middle;resizable=0;points=[];" vertex="1" connectable="0" parent="J7u77pziyDC-r-UCUrzR-49">
          <mxGeometry x="-0.1786" y="4" relative="1" as="geometry">
            <mxPoint as="offset" />
          </mxGeometry>
        </mxCell>
        <mxCell id="J7u77pziyDC-r-UCUrzR-24" value="车道组维护" style="text;html=1;strokeColor=none;fillColor=none;align=center;verticalAlign=middle;whiteSpace=wrap;rounded=0;" parent="WIyWlLk6GJQsqaUBKTNV-1" vertex="1">
          <mxGeometry x="325" y="489" width="85" height="30" as="geometry" />
        </mxCell>
        <mxCell id="J7u77pziyDC-r-UCUrzR-50" style="edgeStyle=orthogonalEdgeStyle;rounded=0;orthogonalLoop=1;jettySize=auto;html=1;exitX=1;exitY=0.5;exitDx=0;exitDy=0;entryX=0;entryY=0.5;entryDx=0;entryDy=0;" parent="WIyWlLk6GJQsqaUBKTNV-1" source="J7u77pziyDC-r-UCUrzR-25" target="J7u77pziyDC-r-UCUrzR-48" edge="1">
          <mxGeometry relative="1" as="geometry" />
        </mxCell>
        <mxCell id="SqXRmf9C6FIYz_qsP1Pk-6" value="情报" style="edgeLabel;html=1;align=center;verticalAlign=middle;resizable=0;points=[];" vertex="1" connectable="0" parent="J7u77pziyDC-r-UCUrzR-50">
          <mxGeometry x="-0.0179" relative="1" as="geometry">
            <mxPoint as="offset" />
          </mxGeometry>
        </mxCell>
        <mxCell id="J7u77pziyDC-r-UCUrzR-25" value="..." style="text;html=1;strokeColor=none;fillColor=none;align=center;verticalAlign=middle;whiteSpace=wrap;rounded=0;" parent="WIyWlLk6GJQsqaUBKTNV-1" vertex="1">
          <mxGeometry x="325" y="559" width="60" height="30" as="geometry" />
        </mxCell>
        <mxCell id="J7u77pziyDC-r-UCUrzR-29" value="隔离带维护 执行" style="text;html=1;strokeColor=none;fillColor=none;align=center;verticalAlign=middle;whiteSpace=wrap;rounded=0;" parent="WIyWlLk6GJQsqaUBKTNV-1" vertex="1">
          <mxGeometry x="497" y="329" width="113" height="30" as="geometry" />
        </mxCell>
        <mxCell id="J7u77pziyDC-r-UCUrzR-30" value="车道线维护 执行" style="text;html=1;strokeColor=none;fillColor=none;align=center;verticalAlign=middle;whiteSpace=wrap;rounded=0;" parent="WIyWlLk6GJQsqaUBKTNV-1" vertex="1">
          <mxGeometry x="502" y="369" width="98" height="30" as="geometry" />
        </mxCell>
        <mxCell id="J7u77pziyDC-r-UCUrzR-31" value="mark样式 执行" style="text;html=1;strokeColor=none;fillColor=none;align=center;verticalAlign=middle;whiteSpace=wrap;rounded=0;" parent="WIyWlLk6GJQsqaUBKTNV-1" vertex="1">
          <mxGeometry x="497" y="409" width="103" height="30" as="geometry" />
        </mxCell>
        <mxCell id="J7u77pziyDC-r-UCUrzR-32" value="合并执行结果" style="text;html=1;strokeColor=none;fillColor=none;align=center;verticalAlign=middle;whiteSpace=wrap;rounded=0;" parent="WIyWlLk6GJQsqaUBKTNV-1" vertex="1">
          <mxGeometry x="650" y="439" width="90" height="30" as="geometry" />
        </mxCell>
        <mxCell id="J7u77pziyDC-r-UCUrzR-39" style="edgeStyle=orthogonalEdgeStyle;rounded=0;orthogonalLoop=1;jettySize=auto;html=1;exitX=1;exitY=0.5;exitDx=0;exitDy=0;entryX=0;entryY=0.5;entryDx=0;entryDy=0;" parent="WIyWlLk6GJQsqaUBKTNV-1" source="J7u77pziyDC-r-UCUrzR-18" target="J7u77pziyDC-r-UCUrzR-22" edge="1">
          <mxGeometry relative="1" as="geometry">
            <mxPoint x="184.5" y="384" as="sourcePoint" />
            <mxPoint x="295" y="369" as="targetPoint" />
          </mxGeometry>
        </mxCell>
        <mxCell id="J7u77pziyDC-r-UCUrzR-40" style="edgeStyle=orthogonalEdgeStyle;rounded=0;orthogonalLoop=1;jettySize=auto;html=1;exitX=1;exitY=0.5;exitDx=0;exitDy=0;entryX=0;entryY=0.5;entryDx=0;entryDy=0;" parent="WIyWlLk6GJQsqaUBKTNV-1" source="J7u77pziyDC-r-UCUrzR-18" target="J7u77pziyDC-r-UCUrzR-23" edge="1">
          <mxGeometry relative="1" as="geometry">
            <mxPoint x="195" y="384" as="sourcePoint" />
            <mxPoint x="335" y="394" as="targetPoint" />
          </mxGeometry>
        </mxCell>
        <mxCell id="J7u77pziyDC-r-UCUrzR-47" value="维护 4 执行" style="text;html=1;strokeColor=none;fillColor=none;align=center;verticalAlign=middle;whiteSpace=wrap;rounded=0;" parent="WIyWlLk6GJQsqaUBKTNV-1" vertex="1">
          <mxGeometry x="497" y="489" width="90" height="30" as="geometry" />
        </mxCell>
        <mxCell id="J7u77pziyDC-r-UCUrzR-48" value="维护 n 执行" style="text;html=1;strokeColor=none;fillColor=none;align=center;verticalAlign=middle;whiteSpace=wrap;rounded=0;" parent="WIyWlLk6GJQsqaUBKTNV-1" vertex="1">
          <mxGeometry x="497" y="559" width="90" height="30" as="geometry" />
        </mxCell>
        <mxCell id="J7u77pziyDC-r-UCUrzR-56" value="" style="endArrow=none;dashed=1;html=1;rounded=0;" parent="WIyWlLk6GJQsqaUBKTNV-1" edge="1">
          <mxGeometry width="50" height="50" relative="1" as="geometry">
            <mxPoint x="180" y="450" as="sourcePoint" />
            <mxPoint x="600" y="449" as="targetPoint" />
          </mxGeometry>
        </mxCell>
        <mxCell id="J7u77pziyDC-r-UCUrzR-63" value="" style="endArrow=none;dashed=1;html=1;rounded=0;" parent="WIyWlLk6GJQsqaUBKTNV-1" edge="1">
          <mxGeometry width="50" height="50" relative="1" as="geometry">
            <mxPoint x="180" y="540" as="sourcePoint" />
            <mxPoint x="600" y="540" as="targetPoint" />
          </mxGeometry>
        </mxCell>
        <mxCell id="J7u77pziyDC-r-UCUrzR-67" style="edgeStyle=orthogonalEdgeStyle;rounded=0;orthogonalLoop=1;jettySize=auto;html=1;exitX=1;exitY=0.5;exitDx=0;exitDy=0;entryX=0;entryY=0.5;entryDx=0;entryDy=0;" parent="WIyWlLk6GJQsqaUBKTNV-1" source="J7u77pziyDC-r-UCUrzR-68" target="J7u77pziyDC-r-UCUrzR-74" edge="1">
          <mxGeometry relative="1" as="geometry" />
        </mxCell>
        <mxCell id="J7u77pziyDC-r-UCUrzR-68" value="空间类型" style="text;html=1;strokeColor=none;fillColor=none;align=center;verticalAlign=middle;whiteSpace=wrap;rounded=0;" parent="WIyWlLk6GJQsqaUBKTNV-1" vertex="1">
          <mxGeometry x="206" y="763" width="60" height="30" as="geometry" />
        </mxCell>
        <mxCell id="J7u77pziyDC-r-UCUrzR-73" style="edgeStyle=orthogonalEdgeStyle;rounded=0;orthogonalLoop=1;jettySize=auto;html=1;exitX=1;exitY=0.5;exitDx=0;exitDy=0;entryX=0;entryY=0.5;entryDx=0;entryDy=0;" parent="WIyWlLk6GJQsqaUBKTNV-1" source="J7u77pziyDC-r-UCUrzR-74" target="J7u77pziyDC-r-UCUrzR-84" edge="1">
          <mxGeometry relative="1" as="geometry" />
        </mxCell>
        <mxCell id="SqXRmf9C6FIYz_qsP1Pk-7" value="情报" style="edgeLabel;html=1;align=center;verticalAlign=middle;resizable=0;points=[];" vertex="1" connectable="0" parent="J7u77pziyDC-r-UCUrzR-73">
          <mxGeometry x="-0.0357" relative="1" as="geometry">
            <mxPoint x="-3" as="offset" />
          </mxGeometry>
        </mxCell>
        <mxCell id="J7u77pziyDC-r-UCUrzR-74" value="隔离带维护" style="text;html=1;strokeColor=none;fillColor=none;align=center;verticalAlign=middle;whiteSpace=wrap;rounded=0;" parent="WIyWlLk6GJQsqaUBKTNV-1" vertex="1">
          <mxGeometry x="333" y="723" width="67" height="30" as="geometry" />
        </mxCell>
        <mxCell id="SqXRmf9C6FIYz_qsP1Pk-18" style="edgeStyle=orthogonalEdgeStyle;rounded=0;orthogonalLoop=1;jettySize=auto;html=1;exitX=1;exitY=0.5;exitDx=0;exitDy=0;" edge="1" parent="WIyWlLk6GJQsqaUBKTNV-1" source="J7u77pziyDC-r-UCUrzR-76">
          <mxGeometry relative="1" as="geometry">
            <mxPoint x="500" y="778" as="targetPoint" />
          </mxGeometry>
        </mxCell>
        <mxCell id="SqXRmf9C6FIYz_qsP1Pk-20" value="情报" style="edgeLabel;html=1;align=center;verticalAlign=middle;resizable=0;points=[];" vertex="1" connectable="0" parent="SqXRmf9C6FIYz_qsP1Pk-18">
          <mxGeometry x="-0.107" relative="1" as="geometry">
            <mxPoint as="offset" />
          </mxGeometry>
        </mxCell>
        <mxCell id="J7u77pziyDC-r-UCUrzR-76" value="车道线维护" style="text;html=1;strokeColor=none;fillColor=none;align=center;verticalAlign=middle;whiteSpace=wrap;rounded=0;" parent="WIyWlLk6GJQsqaUBKTNV-1" vertex="1">
          <mxGeometry x="333" y="763" width="67" height="30" as="geometry" />
        </mxCell>
        <mxCell id="SqXRmf9C6FIYz_qsP1Pk-19" style="edgeStyle=orthogonalEdgeStyle;rounded=0;orthogonalLoop=1;jettySize=auto;html=1;exitX=1;exitY=0.5;exitDx=0;exitDy=0;" edge="1" parent="WIyWlLk6GJQsqaUBKTNV-1" source="J7u77pziyDC-r-UCUrzR-78">
          <mxGeometry relative="1" as="geometry">
            <mxPoint x="500" y="818" as="targetPoint" />
          </mxGeometry>
        </mxCell>
        <mxCell id="SqXRmf9C6FIYz_qsP1Pk-21" value="情报" style="edgeLabel;html=1;align=center;verticalAlign=middle;resizable=0;points=[];" vertex="1" connectable="0" parent="SqXRmf9C6FIYz_qsP1Pk-19">
          <mxGeometry x="-0.0326" y="-1" relative="1" as="geometry">
            <mxPoint as="offset" />
          </mxGeometry>
        </mxCell>
        <mxCell id="J7u77pziyDC-r-UCUrzR-78" value="mark样式" style="text;html=1;strokeColor=none;fillColor=none;align=center;verticalAlign=middle;whiteSpace=wrap;rounded=0;" parent="WIyWlLk6GJQsqaUBKTNV-1" vertex="1">
          <mxGeometry x="333" y="803" width="57" height="30" as="geometry" />
        </mxCell>
        <mxCell id="J7u77pziyDC-r-UCUrzR-84" value="隔离带维护 执行" style="text;html=1;strokeColor=none;fillColor=none;align=center;verticalAlign=middle;whiteSpace=wrap;rounded=0;" parent="WIyWlLk6GJQsqaUBKTNV-1" vertex="1">
          <mxGeometry x="505" y="723" width="90" height="30" as="geometry" />
        </mxCell>
        <mxCell id="J7u77pziyDC-r-UCUrzR-90" style="edgeStyle=orthogonalEdgeStyle;rounded=0;orthogonalLoop=1;jettySize=auto;html=1;exitX=1;exitY=0.5;exitDx=0;exitDy=0;entryX=0;entryY=0.5;entryDx=0;entryDy=0;" parent="WIyWlLk6GJQsqaUBKTNV-1" source="J7u77pziyDC-r-UCUrzR-68" target="J7u77pziyDC-r-UCUrzR-76" edge="1">
          <mxGeometry relative="1" as="geometry">
            <mxPoint x="192.5" y="778" as="sourcePoint" />
            <mxPoint x="303" y="763" as="targetPoint" />
          </mxGeometry>
        </mxCell>
        <mxCell id="J7u77pziyDC-r-UCUrzR-91" style="edgeStyle=orthogonalEdgeStyle;rounded=0;orthogonalLoop=1;jettySize=auto;html=1;exitX=1;exitY=0.5;exitDx=0;exitDy=0;entryX=0;entryY=0.5;entryDx=0;entryDy=0;" parent="WIyWlLk6GJQsqaUBKTNV-1" source="J7u77pziyDC-r-UCUrzR-68" target="J7u77pziyDC-r-UCUrzR-78" edge="1">
          <mxGeometry relative="1" as="geometry">
            <mxPoint x="203" y="778" as="sourcePoint" />
            <mxPoint x="343" y="788" as="targetPoint" />
          </mxGeometry>
        </mxCell>
        <mxCell id="J7u77pziyDC-r-UCUrzR-96" value="" style="endArrow=none;dashed=1;html=1;rounded=0;" parent="WIyWlLk6GJQsqaUBKTNV-1" edge="1">
          <mxGeometry width="50" height="50" relative="1" as="geometry">
            <mxPoint x="60" y="840.09" as="sourcePoint" />
            <mxPoint x="590" y="838" as="targetPoint" />
          </mxGeometry>
        </mxCell>
        <mxCell id="J7u77pziyDC-r-UCUrzR-97" value="" style="endArrow=none;dashed=1;html=1;rounded=0;" parent="WIyWlLk6GJQsqaUBKTNV-1" edge="1">
          <mxGeometry width="50" height="50" relative="1" as="geometry">
            <mxPoint x="60" y="970" as="sourcePoint" />
            <mxPoint x="590" y="968" as="targetPoint" />
          </mxGeometry>
        </mxCell>
        <mxCell id="J7u77pziyDC-r-UCUrzR-103" style="edgeStyle=orthogonalEdgeStyle;rounded=0;orthogonalLoop=1;jettySize=auto;html=1;exitX=1;exitY=0.5;exitDx=0;exitDy=0;entryX=0;entryY=0.5;entryDx=0;entryDy=0;" parent="WIyWlLk6GJQsqaUBKTNV-1" source="J7u77pziyDC-r-UCUrzR-98" target="J7u77pziyDC-r-UCUrzR-68" edge="1">
          <mxGeometry relative="1" as="geometry" />
        </mxCell>
        <mxCell id="J7u77pziyDC-r-UCUrzR-98" value="隔离带维护" style="text;html=1;strokeColor=none;fillColor=none;align=center;verticalAlign=middle;whiteSpace=wrap;rounded=0;" parent="WIyWlLk6GJQsqaUBKTNV-1" vertex="1">
          <mxGeometry x="105" y="763" width="65" height="30" as="geometry" />
        </mxCell>
        <mxCell id="J7u77pziyDC-r-UCUrzR-104" style="edgeStyle=orthogonalEdgeStyle;rounded=0;orthogonalLoop=1;jettySize=auto;html=1;exitX=1;exitY=0.5;exitDx=0;exitDy=0;entryX=0;entryY=0.5;entryDx=0;entryDy=0;" parent="WIyWlLk6GJQsqaUBKTNV-1" source="J7u77pziyDC-r-UCUrzR-99" edge="1">
          <mxGeometry relative="1" as="geometry">
            <mxPoint x="206" y="905" as="targetPoint" />
          </mxGeometry>
        </mxCell>
        <mxCell id="J7u77pziyDC-r-UCUrzR-99" value="车道线维护" style="text;html=1;strokeColor=none;fillColor=none;align=center;verticalAlign=middle;whiteSpace=wrap;rounded=0;" parent="WIyWlLk6GJQsqaUBKTNV-1" vertex="1">
          <mxGeometry x="100" y="890" width="70" height="30" as="geometry" />
        </mxCell>
        <mxCell id="J7u77pziyDC-r-UCUrzR-100" value="维护 3" style="text;html=1;strokeColor=none;fillColor=none;align=center;verticalAlign=middle;whiteSpace=wrap;rounded=0;" parent="WIyWlLk6GJQsqaUBKTNV-1" vertex="1">
          <mxGeometry x="100" y="1019" width="60" height="30" as="geometry" />
        </mxCell>
        <mxCell id="J7u77pziyDC-r-UCUrzR-143" style="edgeStyle=orthogonalEdgeStyle;rounded=0;orthogonalLoop=1;jettySize=auto;html=1;exitX=1;exitY=0.5;exitDx=0;exitDy=0;entryX=0;entryY=0.5;entryDx=0;entryDy=0;" parent="WIyWlLk6GJQsqaUBKTNV-1" source="J7u77pziyDC-r-UCUrzR-101" target="J7u77pziyDC-r-UCUrzR-106" edge="1">
          <mxGeometry relative="1" as="geometry" />
        </mxCell>
        <mxCell id="J7u77pziyDC-r-UCUrzR-101" value="车道组维护" style="text;html=1;strokeColor=none;fillColor=none;align=center;verticalAlign=middle;whiteSpace=wrap;rounded=0;" parent="WIyWlLk6GJQsqaUBKTNV-1" vertex="1">
          <mxGeometry x="100" y="1105" width="70" height="30" as="geometry" />
        </mxCell>
        <mxCell id="J7u77pziyDC-r-UCUrzR-144" style="edgeStyle=orthogonalEdgeStyle;rounded=0;orthogonalLoop=1;jettySize=auto;html=1;exitX=1;exitY=0.5;exitDx=0;exitDy=0;entryX=0;entryY=0.5;entryDx=0;entryDy=0;" parent="WIyWlLk6GJQsqaUBKTNV-1" source="J7u77pziyDC-r-UCUrzR-102" target="J7u77pziyDC-r-UCUrzR-108" edge="1">
          <mxGeometry relative="1" as="geometry" />
        </mxCell>
        <mxCell id="J7u77pziyDC-r-UCUrzR-102" value="..." style="text;html=1;strokeColor=none;fillColor=none;align=center;verticalAlign=middle;whiteSpace=wrap;rounded=0;" parent="WIyWlLk6GJQsqaUBKTNV-1" vertex="1">
          <mxGeometry x="100" y="1177" width="60" height="30" as="geometry" />
        </mxCell>
        <mxCell id="J7u77pziyDC-r-UCUrzR-105" style="edgeStyle=orthogonalEdgeStyle;rounded=0;orthogonalLoop=1;jettySize=auto;html=1;exitX=1;exitY=0.5;exitDx=0;exitDy=0;entryX=0;entryY=0.5;entryDx=0;entryDy=0;" parent="WIyWlLk6GJQsqaUBKTNV-1" source="J7u77pziyDC-r-UCUrzR-106" target="J7u77pziyDC-r-UCUrzR-110" edge="1">
          <mxGeometry relative="1" as="geometry" />
        </mxCell>
        <mxCell id="J7u77pziyDC-r-UCUrzR-106" value="关系类型" style="text;html=1;strokeColor=none;fillColor=none;align=center;verticalAlign=middle;whiteSpace=wrap;rounded=0;" parent="WIyWlLk6GJQsqaUBKTNV-1" vertex="1">
          <mxGeometry x="206" y="1105" width="60" height="30" as="geometry" />
        </mxCell>
        <mxCell id="J7u77pziyDC-r-UCUrzR-107" style="edgeStyle=orthogonalEdgeStyle;rounded=0;orthogonalLoop=1;jettySize=auto;html=1;exitX=1;exitY=0.5;exitDx=0;exitDy=0;entryX=0;entryY=0.5;entryDx=0;entryDy=0;" parent="WIyWlLk6GJQsqaUBKTNV-1" source="J7u77pziyDC-r-UCUrzR-108" target="J7u77pziyDC-r-UCUrzR-112" edge="1">
          <mxGeometry relative="1" as="geometry" />
        </mxCell>
        <mxCell id="J7u77pziyDC-r-UCUrzR-108" value="..." style="text;html=1;strokeColor=none;fillColor=none;align=center;verticalAlign=middle;whiteSpace=wrap;rounded=0;" parent="WIyWlLk6GJQsqaUBKTNV-1" vertex="1">
          <mxGeometry x="206" y="1177" width="60" height="30" as="geometry" />
        </mxCell>
        <mxCell id="J7u77pziyDC-r-UCUrzR-109" style="edgeStyle=orthogonalEdgeStyle;rounded=0;orthogonalLoop=1;jettySize=auto;html=1;exitX=1;exitY=0.5;exitDx=0;exitDy=0;entryX=0;entryY=0.5;entryDx=0;entryDy=0;" parent="WIyWlLk6GJQsqaUBKTNV-1" source="J7u77pziyDC-r-UCUrzR-110" target="J7u77pziyDC-r-UCUrzR-113" edge="1">
          <mxGeometry relative="1" as="geometry" />
        </mxCell>
        <mxCell id="SqXRmf9C6FIYz_qsP1Pk-36" value="情报" style="edgeLabel;html=1;align=center;verticalAlign=middle;resizable=0;points=[];" vertex="1" connectable="0" parent="J7u77pziyDC-r-UCUrzR-109">
          <mxGeometry x="-0.1238" y="1" relative="1" as="geometry">
            <mxPoint as="offset" />
          </mxGeometry>
        </mxCell>
        <mxCell id="J7u77pziyDC-r-UCUrzR-110" value="车道组维护" style="text;html=1;strokeColor=none;fillColor=none;align=center;verticalAlign=middle;whiteSpace=wrap;rounded=0;" parent="WIyWlLk6GJQsqaUBKTNV-1" vertex="1">
          <mxGeometry x="333" y="1105" width="67" height="30" as="geometry" />
        </mxCell>
        <mxCell id="J7u77pziyDC-r-UCUrzR-111" style="edgeStyle=orthogonalEdgeStyle;rounded=0;orthogonalLoop=1;jettySize=auto;html=1;exitX=1;exitY=0.5;exitDx=0;exitDy=0;entryX=0;entryY=0.5;entryDx=0;entryDy=0;" parent="WIyWlLk6GJQsqaUBKTNV-1" source="J7u77pziyDC-r-UCUrzR-112" target="J7u77pziyDC-r-UCUrzR-114" edge="1">
          <mxGeometry relative="1" as="geometry" />
        </mxCell>
        <mxCell id="SqXRmf9C6FIYz_qsP1Pk-37" value="情报" style="edgeLabel;html=1;align=center;verticalAlign=middle;resizable=0;points=[];" vertex="1" connectable="0" parent="J7u77pziyDC-r-UCUrzR-111">
          <mxGeometry x="-0.0714" relative="1" as="geometry">
            <mxPoint as="offset" />
          </mxGeometry>
        </mxCell>
        <mxCell id="J7u77pziyDC-r-UCUrzR-112" value="..." style="text;html=1;strokeColor=none;fillColor=none;align=center;verticalAlign=middle;whiteSpace=wrap;rounded=0;" parent="WIyWlLk6GJQsqaUBKTNV-1" vertex="1">
          <mxGeometry x="333" y="1177" width="60" height="30" as="geometry" />
        </mxCell>
        <mxCell id="J7u77pziyDC-r-UCUrzR-113" value="车道组维护&amp;nbsp;执行" style="text;html=1;strokeColor=none;fillColor=none;align=center;verticalAlign=middle;whiteSpace=wrap;rounded=0;" parent="WIyWlLk6GJQsqaUBKTNV-1" vertex="1">
          <mxGeometry x="505" y="1105" width="95" height="30" as="geometry" />
        </mxCell>
        <mxCell id="J7u77pziyDC-r-UCUrzR-114" value="..." style="text;html=1;strokeColor=none;fillColor=none;align=center;verticalAlign=middle;whiteSpace=wrap;rounded=0;" parent="WIyWlLk6GJQsqaUBKTNV-1" vertex="1">
          <mxGeometry x="505" y="1177" width="90" height="30" as="geometry" />
        </mxCell>
        <mxCell id="J7u77pziyDC-r-UCUrzR-115" style="edgeStyle=orthogonalEdgeStyle;rounded=0;orthogonalLoop=1;jettySize=auto;html=1;exitX=1;exitY=0.5;exitDx=0;exitDy=0;entryX=0;entryY=0.5;entryDx=0;entryDy=0;" parent="WIyWlLk6GJQsqaUBKTNV-1" source="J7u77pziyDC-r-UCUrzR-116" target="J7u77pziyDC-r-UCUrzR-118" edge="1">
          <mxGeometry relative="1" as="geometry" />
        </mxCell>
        <mxCell id="J7u77pziyDC-r-UCUrzR-116" value="空间类型" style="text;html=1;strokeColor=none;fillColor=none;align=center;verticalAlign=middle;whiteSpace=wrap;rounded=0;" parent="WIyWlLk6GJQsqaUBKTNV-1" vertex="1">
          <mxGeometry x="206" y="890" width="60" height="30" as="geometry" />
        </mxCell>
        <mxCell id="SqXRmf9C6FIYz_qsP1Pk-26" style="edgeStyle=orthogonalEdgeStyle;rounded=0;orthogonalLoop=1;jettySize=auto;html=1;exitX=1;exitY=0.5;exitDx=0;exitDy=0;" edge="1" parent="WIyWlLk6GJQsqaUBKTNV-1" source="J7u77pziyDC-r-UCUrzR-118">
          <mxGeometry relative="1" as="geometry">
            <mxPoint x="500" y="865" as="targetPoint" />
          </mxGeometry>
        </mxCell>
        <mxCell id="SqXRmf9C6FIYz_qsP1Pk-27" value="情报" style="edgeLabel;html=1;align=center;verticalAlign=middle;resizable=0;points=[];" vertex="1" connectable="0" parent="SqXRmf9C6FIYz_qsP1Pk-26">
          <mxGeometry x="-0.1045" relative="1" as="geometry">
            <mxPoint as="offset" />
          </mxGeometry>
        </mxCell>
        <mxCell id="J7u77pziyDC-r-UCUrzR-118" value="隔离带维护" style="text;html=1;strokeColor=none;fillColor=none;align=center;verticalAlign=middle;whiteSpace=wrap;rounded=0;" parent="WIyWlLk6GJQsqaUBKTNV-1" vertex="1">
          <mxGeometry x="333" y="850" width="67" height="30" as="geometry" />
        </mxCell>
        <mxCell id="J7u77pziyDC-r-UCUrzR-119" style="edgeStyle=orthogonalEdgeStyle;rounded=0;orthogonalLoop=1;jettySize=auto;html=1;exitX=1;exitY=0.5;exitDx=0;exitDy=0;entryX=0;entryY=0.5;entryDx=0;entryDy=0;" parent="WIyWlLk6GJQsqaUBKTNV-1" source="J7u77pziyDC-r-UCUrzR-120" target="J7u77pziyDC-r-UCUrzR-124" edge="1">
          <mxGeometry relative="1" as="geometry" />
        </mxCell>
        <mxCell id="SqXRmf9C6FIYz_qsP1Pk-28" value="情报" style="edgeLabel;html=1;align=center;verticalAlign=middle;resizable=0;points=[];" vertex="1" connectable="0" parent="J7u77pziyDC-r-UCUrzR-119">
          <mxGeometry x="-0.1818" relative="1" as="geometry">
            <mxPoint as="offset" />
          </mxGeometry>
        </mxCell>
        <mxCell id="J7u77pziyDC-r-UCUrzR-120" value="车道线维护" style="text;html=1;strokeColor=none;fillColor=none;align=center;verticalAlign=middle;whiteSpace=wrap;rounded=0;" parent="WIyWlLk6GJQsqaUBKTNV-1" vertex="1">
          <mxGeometry x="333" y="890" width="67" height="30" as="geometry" />
        </mxCell>
        <mxCell id="SqXRmf9C6FIYz_qsP1Pk-29" style="edgeStyle=orthogonalEdgeStyle;rounded=0;orthogonalLoop=1;jettySize=auto;html=1;exitX=1;exitY=0.5;exitDx=0;exitDy=0;" edge="1" parent="WIyWlLk6GJQsqaUBKTNV-1" source="J7u77pziyDC-r-UCUrzR-122">
          <mxGeometry relative="1" as="geometry">
            <mxPoint x="500" y="945" as="targetPoint" />
          </mxGeometry>
        </mxCell>
        <mxCell id="SqXRmf9C6FIYz_qsP1Pk-30" value="情报" style="edgeLabel;html=1;align=center;verticalAlign=middle;resizable=0;points=[];" vertex="1" connectable="0" parent="SqXRmf9C6FIYz_qsP1Pk-29">
          <mxGeometry x="0.2555" y="-2" relative="1" as="geometry">
            <mxPoint x="-14" y="-2" as="offset" />
          </mxGeometry>
        </mxCell>
        <mxCell id="J7u77pziyDC-r-UCUrzR-122" value="mark样式" style="text;html=1;strokeColor=none;fillColor=none;align=center;verticalAlign=middle;whiteSpace=wrap;rounded=0;" parent="WIyWlLk6GJQsqaUBKTNV-1" vertex="1">
          <mxGeometry x="333" y="930" width="60" height="30" as="geometry" />
        </mxCell>
        <mxCell id="J7u77pziyDC-r-UCUrzR-124" value="维护 2 执行" style="text;html=1;strokeColor=none;fillColor=none;align=center;verticalAlign=middle;whiteSpace=wrap;rounded=0;" parent="WIyWlLk6GJQsqaUBKTNV-1" vertex="1">
          <mxGeometry x="510" y="890" width="80" height="30" as="geometry" />
        </mxCell>
        <mxCell id="J7u77pziyDC-r-UCUrzR-126" style="edgeStyle=orthogonalEdgeStyle;rounded=0;orthogonalLoop=1;jettySize=auto;html=1;exitX=1;exitY=0.5;exitDx=0;exitDy=0;entryX=0;entryY=0.5;entryDx=0;entryDy=0;" parent="WIyWlLk6GJQsqaUBKTNV-1" source="J7u77pziyDC-r-UCUrzR-116" target="J7u77pziyDC-r-UCUrzR-120" edge="1">
          <mxGeometry relative="1" as="geometry">
            <mxPoint x="192.5" y="905" as="sourcePoint" />
            <mxPoint x="303" y="890" as="targetPoint" />
          </mxGeometry>
        </mxCell>
        <mxCell id="J7u77pziyDC-r-UCUrzR-127" style="edgeStyle=orthogonalEdgeStyle;rounded=0;orthogonalLoop=1;jettySize=auto;html=1;exitX=1;exitY=0.5;exitDx=0;exitDy=0;entryX=0;entryY=0.5;entryDx=0;entryDy=0;" parent="WIyWlLk6GJQsqaUBKTNV-1" source="J7u77pziyDC-r-UCUrzR-116" target="J7u77pziyDC-r-UCUrzR-122" edge="1">
          <mxGeometry relative="1" as="geometry">
            <mxPoint x="203" y="905" as="sourcePoint" />
            <mxPoint x="343" y="915" as="targetPoint" />
          </mxGeometry>
        </mxCell>
        <mxCell id="J7u77pziyDC-r-UCUrzR-128" style="edgeStyle=orthogonalEdgeStyle;rounded=0;orthogonalLoop=1;jettySize=auto;html=1;exitX=1;exitY=0.5;exitDx=0;exitDy=0;entryX=0;entryY=0.5;entryDx=0;entryDy=0;" parent="WIyWlLk6GJQsqaUBKTNV-1" source="J7u77pziyDC-r-UCUrzR-129" target="J7u77pziyDC-r-UCUrzR-131" edge="1">
          <mxGeometry relative="1" as="geometry" />
        </mxCell>
        <mxCell id="J7u77pziyDC-r-UCUrzR-129" value="空间类型" style="text;html=1;strokeColor=none;fillColor=none;align=center;verticalAlign=middle;whiteSpace=wrap;rounded=0;" parent="WIyWlLk6GJQsqaUBKTNV-1" vertex="1">
          <mxGeometry x="206" y="1019" width="60" height="30" as="geometry" />
        </mxCell>
        <mxCell id="SqXRmf9C6FIYz_qsP1Pk-31" style="edgeStyle=orthogonalEdgeStyle;rounded=0;orthogonalLoop=1;jettySize=auto;html=1;exitX=1;exitY=0.5;exitDx=0;exitDy=0;" edge="1" parent="WIyWlLk6GJQsqaUBKTNV-1" source="J7u77pziyDC-r-UCUrzR-131">
          <mxGeometry relative="1" as="geometry">
            <mxPoint x="500" y="994" as="targetPoint" />
          </mxGeometry>
        </mxCell>
        <mxCell id="SqXRmf9C6FIYz_qsP1Pk-32" value="情报" style="edgeLabel;html=1;align=center;verticalAlign=middle;resizable=0;points=[];" vertex="1" connectable="0" parent="SqXRmf9C6FIYz_qsP1Pk-31">
          <mxGeometry x="-0.0647" y="1" relative="1" as="geometry">
            <mxPoint as="offset" />
          </mxGeometry>
        </mxCell>
        <mxCell id="J7u77pziyDC-r-UCUrzR-131" value="隔离带维护" style="text;html=1;strokeColor=none;fillColor=none;align=center;verticalAlign=middle;whiteSpace=wrap;rounded=0;" parent="WIyWlLk6GJQsqaUBKTNV-1" vertex="1">
          <mxGeometry x="333" y="979" width="67" height="30" as="geometry" />
        </mxCell>
        <mxCell id="SqXRmf9C6FIYz_qsP1Pk-33" style="edgeStyle=orthogonalEdgeStyle;rounded=0;orthogonalLoop=1;jettySize=auto;html=1;exitX=1;exitY=0.5;exitDx=0;exitDy=0;" edge="1" parent="WIyWlLk6GJQsqaUBKTNV-1" source="J7u77pziyDC-r-UCUrzR-133">
          <mxGeometry relative="1" as="geometry">
            <mxPoint x="500" y="1034" as="targetPoint" />
          </mxGeometry>
        </mxCell>
        <mxCell id="SqXRmf9C6FIYz_qsP1Pk-34" value="情报" style="edgeLabel;html=1;align=center;verticalAlign=middle;resizable=0;points=[];" vertex="1" connectable="0" parent="SqXRmf9C6FIYz_qsP1Pk-33">
          <mxGeometry x="0.0444" y="-2" relative="1" as="geometry">
            <mxPoint x="-4" as="offset" />
          </mxGeometry>
        </mxCell>
        <mxCell id="J7u77pziyDC-r-UCUrzR-133" value="车道线维护" style="text;html=1;strokeColor=none;fillColor=none;align=center;verticalAlign=middle;whiteSpace=wrap;rounded=0;" parent="WIyWlLk6GJQsqaUBKTNV-1" vertex="1">
          <mxGeometry x="333" y="1019" width="67" height="30" as="geometry" />
        </mxCell>
        <mxCell id="J7u77pziyDC-r-UCUrzR-134" style="edgeStyle=orthogonalEdgeStyle;rounded=0;orthogonalLoop=1;jettySize=auto;html=1;exitX=1;exitY=0.5;exitDx=0;exitDy=0;entryX=0;entryY=0.5;entryDx=0;entryDy=0;" parent="WIyWlLk6GJQsqaUBKTNV-1" source="J7u77pziyDC-r-UCUrzR-135" target="J7u77pziyDC-r-UCUrzR-138" edge="1">
          <mxGeometry relative="1" as="geometry" />
        </mxCell>
        <mxCell id="SqXRmf9C6FIYz_qsP1Pk-35" value="情报" style="edgeLabel;html=1;align=center;verticalAlign=middle;resizable=0;points=[];" vertex="1" connectable="0" parent="J7u77pziyDC-r-UCUrzR-134">
          <mxGeometry x="-0.0536" y="2" relative="1" as="geometry">
            <mxPoint as="offset" />
          </mxGeometry>
        </mxCell>
        <mxCell id="J7u77pziyDC-r-UCUrzR-135" value="mark样式" style="text;html=1;strokeColor=none;fillColor=none;align=center;verticalAlign=middle;whiteSpace=wrap;rounded=0;" parent="WIyWlLk6GJQsqaUBKTNV-1" vertex="1">
          <mxGeometry x="333" y="1059" width="60" height="30" as="geometry" />
        </mxCell>
        <mxCell id="J7u77pziyDC-r-UCUrzR-138" value="mark样式 执行" style="text;html=1;strokeColor=none;fillColor=none;align=center;verticalAlign=middle;whiteSpace=wrap;rounded=0;" parent="WIyWlLk6GJQsqaUBKTNV-1" vertex="1">
          <mxGeometry x="505" y="1059" width="90" height="30" as="geometry" />
        </mxCell>
        <mxCell id="J7u77pziyDC-r-UCUrzR-139" style="edgeStyle=orthogonalEdgeStyle;rounded=0;orthogonalLoop=1;jettySize=auto;html=1;exitX=1;exitY=0.5;exitDx=0;exitDy=0;entryX=0;entryY=0.5;entryDx=0;entryDy=0;" parent="WIyWlLk6GJQsqaUBKTNV-1" source="J7u77pziyDC-r-UCUrzR-129" target="J7u77pziyDC-r-UCUrzR-133" edge="1">
          <mxGeometry relative="1" as="geometry">
            <mxPoint x="192.5" y="1034" as="sourcePoint" />
            <mxPoint x="303" y="1019" as="targetPoint" />
          </mxGeometry>
        </mxCell>
        <mxCell id="J7u77pziyDC-r-UCUrzR-140" style="edgeStyle=orthogonalEdgeStyle;rounded=0;orthogonalLoop=1;jettySize=auto;html=1;exitX=1;exitY=0.5;exitDx=0;exitDy=0;entryX=0;entryY=0.5;entryDx=0;entryDy=0;" parent="WIyWlLk6GJQsqaUBKTNV-1" source="J7u77pziyDC-r-UCUrzR-129" target="J7u77pziyDC-r-UCUrzR-135" edge="1">
          <mxGeometry relative="1" as="geometry">
            <mxPoint x="203" y="1034" as="sourcePoint" />
            <mxPoint x="343" y="1044" as="targetPoint" />
          </mxGeometry>
        </mxCell>
        <mxCell id="J7u77pziyDC-r-UCUrzR-141" value="" style="endArrow=none;dashed=1;html=1;rounded=0;" parent="WIyWlLk6GJQsqaUBKTNV-1" edge="1">
          <mxGeometry width="50" height="50" relative="1" as="geometry">
            <mxPoint x="65" y="1096" as="sourcePoint" />
            <mxPoint x="590" y="1094" as="targetPoint" />
          </mxGeometry>
        </mxCell>
        <mxCell id="J7u77pziyDC-r-UCUrzR-142" value="" style="endArrow=none;dashed=1;html=1;rounded=0;" parent="WIyWlLk6GJQsqaUBKTNV-1" edge="1">
          <mxGeometry width="50" height="50" relative="1" as="geometry">
            <mxPoint x="70" y="1162" as="sourcePoint" />
            <mxPoint x="580" y="1160" as="targetPoint" />
          </mxGeometry>
        </mxCell>
        <mxCell id="J7u77pziyDC-r-UCUrzR-145" value="" style="shape=link;html=1;rounded=0;" parent="WIyWlLk6GJQsqaUBKTNV-1" edge="1">
          <mxGeometry width="100" relative="1" as="geometry">
            <mxPoint x="30" y="260" as="sourcePoint" />
            <mxPoint x="790" y="260" as="targetPoint" />
          </mxGeometry>
        </mxCell>
        <mxCell id="J7u77pziyDC-r-UCUrzR-146" value="" style="shape=link;html=1;rounded=0;" parent="WIyWlLk6GJQsqaUBKTNV-1" edge="1">
          <mxGeometry width="100" relative="1" as="geometry">
            <mxPoint x="30" y="640" as="sourcePoint" />
            <mxPoint x="790" y="640" as="targetPoint" />
          </mxGeometry>
        </mxCell>
        <mxCell id="J7u77pziyDC-r-UCUrzR-147" value="示例" style="text;strokeColor=none;fillColor=none;html=1;fontSize=24;fontStyle=1;verticalAlign=middle;align=center;" parent="WIyWlLk6GJQsqaUBKTNV-1" vertex="1">
          <mxGeometry x="80" y="30" width="100" height="40" as="geometry" />
        </mxCell>
        <mxCell id="J7u77pziyDC-r-UCUrzR-148" value="没有冗余情报" style="text;strokeColor=none;fillColor=none;html=1;fontSize=24;fontStyle=1;verticalAlign=middle;align=center;" parent="WIyWlLk6GJQsqaUBKTNV-1" vertex="1">
          <mxGeometry x="120" y="272" width="100" height="40" as="geometry" />
        </mxCell>
        <mxCell id="J7u77pziyDC-r-UCUrzR-149" value="存在冗余情报" style="text;strokeColor=none;fillColor=none;html=1;fontSize=24;fontStyle=1;verticalAlign=middle;align=center;" parent="WIyWlLk6GJQsqaUBKTNV-1" vertex="1">
          <mxGeometry x="110" y="647" width="100" height="40" as="geometry" />
        </mxCell>
        <mxCell id="J7u77pziyDC-r-UCUrzR-157" value="新增逻辑以实现排序" style="text;html=1;strokeColor=none;fillColor=none;align=center;verticalAlign=middle;whiteSpace=wrap;rounded=0;fontSize=14;fontColor=#0066CC;" parent="WIyWlLk6GJQsqaUBKTNV-1" vertex="1">
          <mxGeometry x="230" y="1238" width="140" height="30" as="geometry" />
        </mxCell>
        <mxCell id="J7u77pziyDC-r-UCUrzR-158" value="&lt;font color=&quot;#cc0000&quot;&gt;生成冗余情报产生了额外耗时&lt;/font&gt;" style="text;html=1;strokeColor=none;fillColor=none;align=center;verticalAlign=middle;whiteSpace=wrap;rounded=0;fontSize=14;fontColor=#7EA6E0;" parent="WIyWlLk6GJQsqaUBKTNV-1" vertex="1">
          <mxGeometry x="530" y="783" width="200" height="30" as="geometry" />
        </mxCell>
        <mxCell id="J7u77pziyDC-r-UCUrzR-162" value="" style="rounded=0;whiteSpace=wrap;html=1;" parent="WIyWlLk6GJQsqaUBKTNV-1" vertex="1">
          <mxGeometry x="625" y="943" width="120" height="60" as="geometry" />
        </mxCell>
        <mxCell id="J7u77pziyDC-r-UCUrzR-89" value="合并执行结果" style="text;html=1;strokeColor=none;fillColor=none;align=center;verticalAlign=middle;whiteSpace=wrap;rounded=0;" parent="WIyWlLk6GJQsqaUBKTNV-1" vertex="1">
          <mxGeometry x="640" y="958" width="90" height="30" as="geometry" />
        </mxCell>
        <mxCell id="SqXRmf9C6FIYz_qsP1Pk-0" value="" style="rounded=0;whiteSpace=wrap;html=1;" vertex="1" parent="WIyWlLk6GJQsqaUBKTNV-1">
          <mxGeometry x="45" y="424" width="120" height="60" as="geometry" />
        </mxCell>
        <mxCell id="SqXRmf9C6FIYz_qsP1Pk-1" value="车道线变更" style="text;html=1;strokeColor=none;fillColor=none;align=center;verticalAlign=middle;whiteSpace=wrap;rounded=0;" vertex="1" parent="WIyWlLk6GJQsqaUBKTNV-1">
          <mxGeometry x="55" y="439" width="90" height="30" as="geometry" />
        </mxCell>
      </root>
    </mxGraphModel>
  </diagram>
</mxfile>
